<svg width="25" height="41" viewBox="0 0 25 41" fill="none" xmlns="http://www.w3.org/2000/svg">
<g clip-path="url(#clip0_6200_67)">
<path d="M9.875 20.25C9.875 20.6208 9.76503 20.9834 9.559 21.2917C9.35298 21.6 9.06014 21.8404 8.71753 21.9823C8.37492 22.1242 7.99792 22.1613 7.6342 22.089C7.27049 22.0166 6.9364 21.838 6.67417 21.5758C6.41195 21.3136 6.23337 20.9795 6.16103 20.6158C6.08868 20.2521 6.12581 19.8751 6.26773 19.5325C6.40964 19.1899 6.64996 18.897 6.95831 18.691C7.26665 18.485 7.62916 18.375 8 18.375C8.49728 18.375 8.97419 18.5725 9.32582 18.9242C9.67745 19.2758 9.875 19.7527 9.875 20.25ZM17.75 18.375C17.3792 18.375 17.0166 18.485 16.7083 18.691C16.4 18.897 16.1596 19.1899 16.0177 19.5325C15.8758 19.8751 15.8387 20.2521 15.911 20.6158C15.9834 20.9795 16.162 21.3136 16.4242 21.5758C16.6864 21.838 17.0205 22.0166 17.3842 22.089C17.7479 22.1613 18.1249 22.1242 18.4675 21.9823C18.8101 21.8404 19.103 21.6 19.309 21.2917C19.515 20.9834 19.625 20.6208 19.625 20.25C19.625 19.7527 19.4275 19.2758 19.0758 18.9242C18.7242 18.5725 18.2473 18.375 17.75 18.375ZM22.5753 7.08094L20.0169 15.3966C19.8535 15.9343 19.5211 16.4051 19.069 16.739C18.6169 17.0729 18.0692 17.2521 17.5072 17.25H8.27469C7.7046 17.2482 7.15046 17.0616 6.6953 16.7183C6.24015 16.3751 5.90848 15.8936 5.75 15.3459L2.54469 4.125H1.625C1.32663 4.125 1.04048 4.00647 0.829505 3.7955C0.618526 3.58452 0.5 3.29837 0.5 3C0.5 2.70163 0.618526 2.41548 0.829505 2.2045C1.04048 1.99353 1.32663 1.875 1.625 1.875H2.82687C3.23407 1.87626 3.62988 2.00951 3.95493 2.25478C4.27998 2.50004 4.51674 2.84409 4.62969 3.23531L5.31312 5.625H21.5C21.6761 5.62499 21.8497 5.6663 22.0069 5.74561C22.164 5.82492 22.3004 5.94001 22.405 6.08164C22.5096 6.22326 22.5795 6.38746 22.6091 6.56102C22.6387 6.73458 22.6271 6.91266 22.5753 7.08094ZM19.9766 7.875H5.95531L7.91375 14.7281C7.93617 14.8065 7.98354 14.8755 8.04867 14.9245C8.1138 14.9736 8.19315 15.0001 8.27469 15H17.5072C17.5875 15.0002 17.6656 14.9746 17.7303 14.927C17.7949 14.8794 17.8426 14.8123 17.8662 14.7356L19.9766 7.875Z" fill="#3669C9"/>
</g>
<path d="M4.68 37.12C4.08 37.12 3.528 37.016 3.024 36.808C2.52 36.6 2.084 36.304 1.716 35.92C1.348 35.528 1.06 35.068 0.852 34.54C0.652 34.004 0.552 33.42 0.552 32.788C0.552 32.18 0.66 31.616 0.876 31.096C1.092 30.576 1.392 30.12 1.776 29.728C2.16 29.336 2.608 29.032 3.12 28.816C3.632 28.6 4.184 28.492 4.776 28.492C5.184 28.492 5.58 28.552 5.964 28.672C6.348 28.792 6.7 28.96 7.02 29.176C7.348 29.384 7.616 29.632 7.824 29.92L6.828 30.988C6.516 30.668 6.188 30.424 5.844 30.256C5.508 30.088 5.152 30.004 4.776 30.004C4.408 30.004 4.06 30.072 3.732 30.208C3.412 30.344 3.132 30.536 2.892 30.784C2.66 31.032 2.476 31.328 2.34 31.672C2.204 32.008 2.136 32.384 2.136 32.8C2.136 33.224 2.2 33.612 2.328 33.964C2.464 34.308 2.652 34.604 2.892 34.852C3.14 35.1 3.432 35.288 3.768 35.416C4.112 35.544 4.492 35.608 4.908 35.608C5.164 35.608 5.416 35.576 5.664 35.512C5.912 35.44 6.144 35.336 6.36 35.2C6.576 35.064 6.768 34.908 6.936 34.732L7.704 35.968C7.512 36.184 7.256 36.38 6.936 36.556C6.616 36.732 6.26 36.872 5.868 36.976C5.476 37.072 5.08 37.12 4.68 37.12ZM12.6791 37V32.956C12.6791 32.612 12.5631 32.344 12.3311 32.152C12.1071 31.952 11.8151 31.852 11.4551 31.852C11.1191 31.852 10.8151 31.92 10.5431 32.056C10.2711 32.184 10.0191 32.392 9.78712 32.68L8.87513 31.768C9.25113 31.368 9.66713 31.064 10.1231 30.856C10.5791 30.648 11.0711 30.544 11.5991 30.544C12.1031 30.544 12.5351 30.624 12.8951 30.784C13.2631 30.944 13.5471 31.184 13.7471 31.504C13.9471 31.816 14.0471 32.2 14.0471 32.656V37H12.6791ZM10.8791 37.12C10.4711 37.12 10.1071 37.04 9.78712 36.88C9.46713 36.72 9.21113 36.5 9.01913 36.22C8.83513 35.932 8.74313 35.596 8.74313 35.212C8.74313 34.876 8.80313 34.584 8.92313 34.336C9.04313 34.08 9.21913 33.868 9.45113 33.7C9.69113 33.532 9.98713 33.408 10.3391 33.328C10.6991 33.24 11.1111 33.196 11.5751 33.196H13.3871L13.2791 34.252H11.4911C11.2751 34.252 11.0831 34.272 10.9151 34.312C10.7471 34.352 10.6031 34.412 10.4831 34.492C10.3631 34.572 10.2751 34.668 10.2191 34.78C10.1631 34.884 10.1351 35.012 10.1351 35.164C10.1351 35.324 10.1751 35.464 10.2551 35.584C10.3351 35.696 10.4431 35.784 10.5791 35.848C10.7151 35.912 10.8751 35.944 11.0591 35.944C11.3231 35.944 11.5711 35.9 11.8031 35.812C12.0431 35.724 12.2551 35.6 12.4391 35.44C12.6231 35.28 12.7671 35.1 12.8711 34.9L13.1711 35.716C13.0031 35.996 12.7951 36.24 12.5471 36.448C12.3071 36.656 12.0431 36.82 11.7551 36.94C11.4751 37.06 11.1831 37.12 10.8791 37.12ZM15.6062 37V30.676H17.0462L17.0702 32.692L16.8782 32.236C16.9662 31.916 17.1182 31.628 17.3342 31.372C17.5502 31.116 17.7982 30.916 18.0782 30.772C18.3662 30.62 18.6622 30.544 18.9662 30.544C19.1022 30.544 19.2302 30.556 19.3502 30.58C19.4782 30.604 19.5822 30.632 19.6622 30.664L19.2782 32.272C19.1822 32.224 19.0702 32.188 18.9422 32.164C18.8222 32.132 18.6982 32.116 18.5702 32.116C18.3622 32.116 18.1662 32.156 17.9822 32.236C17.8062 32.308 17.6502 32.412 17.5142 32.548C17.3862 32.684 17.2822 32.844 17.2022 33.028C17.1222 33.204 17.0822 33.4 17.0822 33.616V37H15.6062ZM21.5873 37V29.068H23.0513V37H21.5873ZM20.3393 32.044V30.676H24.4313V32.044H20.3393Z" fill="#3669C9"/>
<defs>
<clipPath id="clip0_6200_67">
<rect width="24" height="24" fill="white" transform="translate(0.5)"/>
</clipPath>
</defs>
</svg>
