<svg width="24" height="24" viewBox="0 0 24 24" fill="none" xmlns="http://www.w3.org/2000/svg">
<path d="M21.375 12C21.375 12.2984 21.2565 12.5845 21.0455 12.7955C20.8345 13.0065 20.5484 13.125 20.25 13.125H6.46878L11.2988 17.9541C11.5101 18.1654 11.6289 18.4521 11.6289 18.7509C11.6289 19.0498 11.5101 19.3365 11.2988 19.5478C11.0874 19.7592 10.8008 19.8779 10.5019 19.8779C10.203 19.8779 9.91638 19.7592 9.70503 19.5478L2.95503 12.7978C2.85015 12.6933 2.76694 12.5691 2.71016 12.4324C2.65337 12.2956 2.62415 12.149 2.62415 12.0009C2.62415 11.8529 2.65337 11.7063 2.71016 11.5695C2.76694 11.4328 2.85015 11.3086 2.95503 11.2041L9.70503 4.45406C9.80968 4.34941 9.93391 4.2664 10.0706 4.20977C10.2074 4.15313 10.3539 4.12399 10.5019 4.12399C10.6499 4.12399 10.7964 4.15313 10.9332 4.20977C11.0699 4.2664 11.1941 4.34941 11.2988 4.45406C11.4034 4.55871 11.4864 4.68294 11.5431 4.81967C11.5997 4.9564 11.6289 5.10294 11.6289 5.25094C11.6289 5.39893 11.5997 5.54547 11.5431 5.6822C11.4864 5.81893 11.4034 5.94316 11.2988 6.04781L6.46878 10.875H20.25C20.5484 10.875 20.8345 10.9935 21.0455 11.2045C21.2565 11.4155 21.375 11.7016 21.375 12Z" fill="#1A1A1A"/>
</svg>
