<svg width="24" height="24" viewBox="0 0 24 24" fill="none" xmlns="http://www.w3.org/2000/svg">
<path d="M20.25 3.375H3.75C3.25272 3.375 2.77581 3.57254 2.42417 3.92417C2.07254 4.27581 1.875 4.75272 1.875 5.25V18.75C1.875 19.2473 2.07254 19.7242 2.42417 20.0758C2.77581 20.4275 3.25272 20.625 3.75 20.625H20.25C20.7473 20.625 21.2242 20.4275 21.5758 20.0758C21.9275 19.7242 22.125 19.2473 22.125 18.75V5.25C22.125 4.75272 21.9275 4.27581 21.5758 3.92417C21.2242 3.57254 20.7473 3.375 20.25 3.375ZM19.875 18.375H4.125V5.625H19.875V18.375ZM7.125 8.25C7.125 7.95163 7.24353 7.66548 7.4545 7.4545C7.66548 7.24353 7.95163 7.125 8.25 7.125C8.54837 7.125 8.83452 7.24353 9.0455 7.4545C9.25647 7.66548 9.375 7.95163 9.375 8.25C9.375 8.94619 9.65156 9.61387 10.1438 10.1062C10.6361 10.5984 11.3038 10.875 12 10.875C12.6962 10.875 13.3639 10.5984 13.8562 10.1062C14.3484 9.61387 14.625 8.94619 14.625 8.25C14.625 7.95163 14.7435 7.66548 14.9545 7.4545C15.1655 7.24353 15.4516 7.125 15.75 7.125C16.0484 7.125 16.3345 7.24353 16.5455 7.4545C16.7565 7.66548 16.875 7.95163 16.875 8.25C16.875 9.54293 16.3614 10.7829 15.4471 11.6971C14.5329 12.6114 13.2929 13.125 12 13.125C10.7071 13.125 9.46709 12.6114 8.55285 11.6971C7.63861 10.7829 7.125 9.54293 7.125 8.25Z" fill="white"/>
</svg>
