<svg width="24" height="23" viewBox="0 0 24 23" fill="none" xmlns="http://www.w3.org/2000/svg">
<rect x="0.320976" y="0.320976" width="23.1103" height="21.7247" rx="2.64805" fill="white"/>
<rect x="0.320976" y="0.320976" width="23.1103" height="21.7247" rx="2.64805" stroke="#CCCCCC" stroke-width="0.641952"/>
<path d="M17.345 11.1833C17.345 11.3574 17.2758 11.5243 17.1528 11.6474C17.0297 11.7704 16.8628 11.8396 16.6887 11.8396H7.06372C6.88967 11.8396 6.72275 11.7704 6.59968 11.6474C6.47661 11.5243 6.40747 11.3574 6.40747 11.1833C6.40747 11.0093 6.47661 10.8424 6.59968 10.7193C6.72275 10.5962 6.88967 10.5271 7.06372 10.5271H16.6887C16.8628 10.5271 17.0297 10.5962 17.1528 10.7193C17.2758 10.8424 17.345 11.0093 17.345 11.1833Z" fill="#1A1A1A"/>
</svg>
