<svg width="24" height="23" viewBox="0 0 24 23" fill="none" xmlns="http://www.w3.org/2000/svg">
<rect x="0.320976" y="0.320976" width="23.1103" height="21.7247" rx="2.64805" fill="white"/>
<rect x="0.320976" y="0.320976" width="23.1103" height="21.7247" rx="2.64805" stroke="#CCCCCC" stroke-width="0.641952"/>
<path d="M17.3449 11.1833C17.3449 11.3574 17.2757 11.5243 17.1527 11.6474C17.0296 11.7704 16.8627 11.8396 16.6886 11.8396H12.5324V15.9958C12.5324 16.1698 12.4633 16.3367 12.3402 16.4598C12.2171 16.5829 12.0502 16.652 11.8762 16.652C11.7021 16.652 11.5352 16.5829 11.4121 16.4598C11.2891 16.3367 11.2199 16.1698 11.2199 15.9958V11.8396H7.06371C6.88967 11.8396 6.72275 11.7704 6.59968 11.6474C6.47661 11.5243 6.40747 11.3574 6.40747 11.1833C6.40747 11.0093 6.47661 10.8424 6.59968 10.7193C6.72275 10.5962 6.88967 10.5271 7.06371 10.5271H11.2199V6.37087C11.2199 6.19683 11.2891 6.02991 11.4121 5.90684C11.5352 5.78377 11.7021 5.71463 11.8762 5.71463C12.0502 5.71463 12.2171 5.78377 12.3402 5.90684C12.4633 6.02991 12.5324 6.19683 12.5324 6.37087V10.5271H16.6886C16.8627 10.5271 17.0296 10.5962 17.1527 10.7193C17.2757 10.8424 17.3449 11.0093 17.3449 11.1833Z" fill="#1A1A1A"/>
</svg>
